<svg width="311" height="316" viewBox="0 0 311 316" fill="none" xmlns="http://www.w3.org/2000/svg">
<path d="M310.6 155.3C310.6 175.694 306.583 195.889 298.779 214.731C290.974 233.573 279.535 250.693 265.114 265.114C250.693 279.535 233.573 290.974 214.731 298.779C195.889 306.583 175.694 310.6 155.3 310.6C134.906 310.6 114.711 306.583 95.8692 298.779C77.0273 290.974 59.9073 279.535 45.4863 265.114C31.0654 250.693 19.626 233.573 11.8215 214.731C4.01692 195.889 0 175.694 0 155.3C0 114.112 16.3619 74.6107 45.4863 45.4863C74.6107 16.3619 114.112 0 155.3 0C196.488 0 235.989 16.3619 265.114 45.4863C294.238 74.6107 310.6 114.112 310.6 155.3Z" fill="#EC008C"/>
<path fill-rule="evenodd" clip-rule="evenodd" d="M117 142.5C110 142.5 104.4 148.2 104.4 155.1V155.3C104.4 162.3 110 167.9 117 167.9H163.2L146.5 184.4C141.6 189.4 141.6 197.4 146.5 202.4C151.4 207.4 159.4 207.4 164.3 202.4L202.5 164.7C204.9 162.3 206.2 159 206.2 155.7C206.2 152.3 204.9 149.1 202.5 146.7L164.3 108.1C158.9 102.6 149.8 103.2 145.1 109.7C141.4 114.9 142.5 122.1 147 126.6L161.2 140.9L161.4 142.5H117ZM155.3 53.5C99.1 53.5 53.6001 99 53.6001 155.2C53.6001 211.4 99.1 256.9 155.3 256.9C211.5 256.9 257 211.4 257 155.2C257 99.1 211.5 53.5 155.3 53.5ZM155.3 231.5C113.2 231.5 79.0001 197.3 79.0001 155.2C79.0001 113.1 113.2 78.9 155.3 78.9C197.4 78.9 231.6 113.1 231.6 155.2C231.6 197.3 197.4 231.5 155.3 231.5Z" fill="white"/>
</svg>
